<svg xmlns="http://www.w3.org/2000/svg" viewBox="0 0 216.34 108.67"><defs><style>.cls-1{fill:#FFF;}</style></defs><title>Asset 2</title><g id="Layer_2" data-name="Layer 2"><g id="Layer_4" data-name="Layer 4"><path class="cls-1" d="M9.17,27.21c-.09-.91-.18-1.84-.25-2.77-.59.9-1.16,1.82-1.7,2.75Z"/><path class="cls-1" d="M89.86,37.15c0,3.39-.08,6.63-.16,9.7a18.15,18.15,0,0,1-.16,2.21c6.47.08,11.2.24,14.12.55a18.14,18.14,0,0,1,.16,2.21v2.29c-1.42.39-7.89.55-19.4.55A101.18,101.18,0,0,1,70.22,54a7.67,7.67,0,0,1-.32-2.45,10.44,10.44,0,0,1,.16-2.37c3.71-.08,8.2-.16,13.57-.16a11.65,11.65,0,0,1-.08-1.66c0-3.31,0-6.7.16-10.1-7.73.24-15.54.39-23.27.55A32,32,0,0,1,60,32.34c8-.32,15.93-.55,24-.79.16-3.15.32-6.39.55-9.62.79-.08,1.74-.16,2.68-.16a17.37,17.37,0,0,1,2.84.32c0,3.23-.08,6.31-.08,9.31l13.47-.28a54.33,54.33,0,0,0-92.89-9,32.08,32.08,0,0,1,3.78-.22c.24,1.89.47,3.63.71,5.36l21.69.47q.47-3.08,1.18-5.92c.95-.08,1.89-.16,2.92-.16a11.74,11.74,0,0,1,2.45.47c-.16,2.05-.32,3.94-.55,5.76,3.94.16,7.81.24,11.67.39v2.21A8.51,8.51,0,0,1,54,33H42c-.39,2.21-.79,4.42-1.26,6.62A7.13,7.13,0,0,1,38,40a6.43,6.43,0,0,1-2.76-.47c.16-2.21.39-4.42.71-6.55-7.41,0-14.12-.08-20.19-.24.24,2.21.47,4.42.71,6.55a30.58,30.58,0,0,1-5.28.47c-.55-2.37-.95-4.81-1.26-7.18-1.84,0-3.6-.08-5.32-.14A54.07,54.07,0,0,0,0,52.54,297.71,297.71,0,0,1,30.94,37.15a12.47,12.47,0,0,1,3.31,3.79,11.6,11.6,0,0,1-1.42.71c7,4,14.12,8.2,21.22,12.46A14.55,14.55,0,0,1,50.58,58,181.4,181.4,0,0,1,27.15,44.56C18.07,49.22,9.06,53.8.12,58.38A54,54,0,0,0,4.57,76.25,33.88,33.88,0,0,1,11,71.77a7.88,7.88,0,0,1,3.08,3.63A43.82,43.82,0,0,1,6.93,81a54.33,54.33,0,0,0,92.65,3.39c-4,.19-9.49.29-16.58.29a73,73,0,0,1-13.33-.95c-.55-5.52-.79-12-.79-19.32h5.36c.16,5.6.32,10.41.32,14.35a127.4,127.4,0,0,0,13.88.63c6.23,0,10.73,0,13.49.16,0-3.55-.16-7.34-.47-11.44-6.63-.39-13.17-.95-19.64-1.73A45.86,45.86,0,0,1,82,61.6c8,.31,16.09.87,24.45,1.73a18.88,18.88,0,0,1,.69,3.69,54.29,54.29,0,0,0-1.48-30.45C100.36,36.78,95.09,37,89.86,37.15Zm-43.7,43a39.17,39.17,0,0,1-8-4.42,27.15,27.15,0,0,1,2.68-4.18A35.93,35.93,0,0,1,49.24,76,10.33,10.33,0,0,1,46.16,80.13ZM49.63,68.3c-6.86.16-13.64.32-20.43.39.71,5.13,1.18,10.1,1.42,15-1.89.79-5.6,1.18-11.2,1.18A18.35,18.35,0,0,1,19,80.69l5.68-.47c-.47-3.86-.87-7.65-1.34-11.36q-10.17.24-20.35.24a26.7,26.7,0,0,1-.39-5c6.63-.16,13.33-.24,20.11-.32-.24-1.89-.47-3.79-.71-5.6-2.68,0-5.36-.16-7.89-.32V55.29a10.43,10.43,0,0,1,.16-2.13q10.29,0,24.13.47a26.79,26.79,0,0,1-.47,4.81c-3.63,0-7.1,0-10.57-.16.32,1.81.71,3.55,1,5.28l21-.24a12.17,12.17,0,0,1,.32,2.37Z"/></g><g id="Layer_3" data-name="Layer 3"><path class="cls-1" d="M122.7,54.33V15.68h8.39q6.27,0,8.85,2.84t2.58,9V41.7q0,6.36-2.55,9.5t-8.47,3.13Zm5.38-3.87h3a8.73,8.73,0,0,0,2.18-.25,7.11,7.11,0,0,0,1.57-.58,2.73,2.73,0,0,0,1.06-1.08,6.5,6.5,0,0,0,1-3.24q.12-1.23.14-2.11t0-2.53V28.11q0-1.4,0-2.35t-.19-1.91a5.79,5.79,0,0,0-.42-1.56,5.54,5.54,0,0,0-.72-1.15,2.92,2.92,0,0,0-1.1-.84,6.79,6.79,0,0,0-1.54-.45,11.53,11.53,0,0,0-2.07-.16h-2.91Z"/><path class="cls-1" d="M149.94,54.33l8.25-38.65h5.2l8.25,38.65h-5.13l-1.77-9.74h-7.86L155,54.33Zm7.65-13.59H164L160.8,23.28Z"/><path class="cls-1" d="M198,62.14q-3-1.51-7-7.41h-.91q-5.64,0-8.11-3.23t-2.47-9.31V27.57q0-6,2.47-9.14t8.11-3.12q5.62,0,8.1,3.13t2.48,9.13V42.24q0,9.25-5.67,11.63a20.43,20.43,0,0,0,3.8,4ZM187.45,50a7.27,7.27,0,0,0,5.25,0,3.43,3.43,0,0,0,1.58-1.49,6.89,6.89,0,0,0,.75-2.21,18.77,18.77,0,0,0,.2-3V26.45a18.09,18.09,0,0,0-.2-2.93,6.51,6.51,0,0,0-.75-2.14A3.29,3.29,0,0,0,192.7,20a7.78,7.78,0,0,0-5.25,0,3.29,3.29,0,0,0-1.58,1.42,6.51,6.51,0,0,0-.75,2.14,18.1,18.1,0,0,0-.2,2.93V43.38a18.78,18.78,0,0,0,.2,3,6.89,6.89,0,0,0,.75,2.21A3.43,3.43,0,0,0,187.45,50Z"/><path class="cls-1" d="M211.05,54.33V15.68h5.29V54.33Z"/><path class="cls-1" d="M122.7,88.82V67.73h2.89V88.82Z"/><path class="cls-1" d="M131,88.82V86.71l6.2-16.87h-5.81V67.73h8.94V69l-6.54,17.71h6.55v2.11Z"/><path class="cls-1" d="M143.9,88.82l4.5-21.09h2.84l4.5,21.09h-2.8l-1-5.32h-4.29l-1,5.32Zm4.17-7.42h3.52l-1.77-9.53Z"/><path class="cls-1" d="M160.48,88.82V67.73h2.94v9.94l4.83-9.94H171L166.82,77l4.85,11.79H168.8l-4.24-10.46-1.15,2.15v8.31Z"/><path class="cls-1" d="M174.82,88.82l4.5-21.09h2.84l4.5,21.09h-2.8l-1-5.32h-4.29l-1,5.32ZM179,81.4h3.52l-1.77-9.53Z"/><path class="cls-1" d="M194.06,88.82V81.38l-4.55-13.65h2.74l3.22,10.16,3.18-10.16h2.77l-4.54,13.65v7.44Z"/><path class="cls-1" d="M204.26,88.82l4.5-21.09h2.84l4.5,21.09h-2.8l-1-5.32h-4.29l-1,5.32Zm4.17-7.42H212l-1.77-9.53Z"/></g></g></svg>